<?xml version="1.0" standalone="no"?><!DOCTYPE svg PUBLIC "-//W3C//DTD SVG 1.1//EN" "http://www.w3.org/Graphics/SVG/1.1/DTD/svg11.dtd"><svg t="1571540444623" class="icon" viewBox="0 0 1024 1024" version="1.1" xmlns="http://www.w3.org/2000/svg" p-id="1262" xmlns:xlink="http://www.w3.org/1999/xlink" width="200" height="200"><defs><style type="text/css"></style></defs><path d="M231.424 2.048C156.8768 6.144 111.4112 24.3712 67.9936 67.7888 33.9968 101.7856 15.5648 137.216 7.168 184.5248 1.2288 218.3168 0 272.5888 0.2048 513.024 0.2048 758.1696 1.2288 805.0688 7.168 839.68c8.192 47.3088 26.624 82.3296 61.6448 117.3504 28.8768 28.672 67.1744 50.176 103.2192 57.5488 40.96 8.3968 43.6224 8.3968 340.992 8.3968 265.0112 0 288.5632-0.2048 311.296-3.6864 59.5968-8.8064 94.6176-25.8048 132.7104-64.3072 33.9968-34.4064 51.6096-68.4032 59.8016-115.0976 5.9392-34.4064 7.168-88.4736 7.168-326.8608 0-240.64-1.2288-294.7072-7.168-329.1136-8.3968-47.3088-28.2624-84.3776-64.9216-120.0128C909.5168 22.528 866.7136 6.3488 787.456 2.048 748.7488-0.2048 271.5648 0 231.424 2.048z m302.8992 249.2416c11.264 8.8064 26.2144 20.48 33.5872 26.2144 7.3728 5.5296 13.5168 11.264 13.5168 12.4928 0.2048 1.6384-48.128 41.1648-65.7408 53.6576-3.2768 2.4576-7.3728-0.2048-38.5024-24.576-19.0464-14.9504-34.816-28.2624-34.816-29.2864 0-1.2288 5.3248-5.9392 11.8784-10.6496 6.3488-4.9152 21.2992-16.5888 33.1776-26.0096 11.8784-9.6256 22.7328-17.408 24.1664-17.408 1.4336-0.2048 11.6736 6.9632 22.7328 15.5648z m-136.8064 155.8528c26.624 21.0944 55.5008 43.8272 64.3072 50.5856 8.8064 6.7584 23.552 18.432 32.9728 26.2144l16.9984 13.7216 22.3232-17.8176c12.288-10.0352 31.9488-25.3952 43.6224-34.4064 11.6736-9.0112 38.2976-29.9008 59.1872-46.6944 20.8896-16.5888 39.1168-30.1056 40.5504-30.1056 2.4576 0 43.8272 31.9488 45.056 34.816 0.2048 0.6144-7.5776 7.7824-17.408 15.5648-83.3536 65.7408-102.8096 80.896-122.4704 96.4608-12.288 9.8304-33.3824 26.4192-46.6944 36.864l-24.1664 19.0464-26.0096-20.48c-14.336-11.4688-27.4432-21.7088-29.0816-23.1424-6.144-5.12-117.76-92.9792-136.3968-107.52-10.6496-8.192-19.2512-15.5648-19.2512-16.384 0.2048-2.4576 41.984-35.0208 45.056-35.0208 1.6384-0.2048 24.7808 17.2032 51.4048 38.2976z m-181.248 77.2096c3.8912 2.8672 15.5648 12.4928 26.2144 21.0944 10.6496 8.6016 26.0096 20.8896 34.2016 27.0336 7.9872 6.144 35.0208 27.4432 60.0064 47.104 24.9856 19.8656 57.7536 45.6704 72.9088 57.5488 15.36 12.0832 44.4416 34.816 64.512 50.7904 20.2752 15.7696 37.2736 28.8768 37.888 28.8768 1.2288 0 59.392-45.6704 124.928-97.6896 8.6016-6.7584 40.3456-31.9488 79.872-62.8736 24.1664-19.0464 54.6816-43.2128 67.584-53.4528 35.0208-28.0576 28.8768-27.2384 54.0672-6.9632 11.8784 9.4208 21.504 18.0224 21.504 19.2512 0.2048 1.024-15.36 14.1312-34.2016 29.0816-37.0688 29.4912-120.6272 95.232-164.4544 129.6384-14.9504 11.8784-34.2016 27.0336-42.8032 33.792-12.4928 10.0352-94.6176 74.3424-104.0384 81.5104-1.8432 1.4336-6.9632-1.4336-18.432-10.24-18.432-14.336-163.84-128.6144-221.7984-174.4896-22.1184-17.6128-56.1152-44.4416-75.3664-59.5968-19.2512-15.1552-35.0208-28.4672-35.0208-29.696 0.2048-2.2528 40.96-35.6352 43.8272-35.84 1.024 0 4.9152 2.2528 8.6016 5.12z" p-id="1263" fill="#1296db"></path></svg>